<svg xmlns="http://www.w3.org/2000/svg" viewBox="0 0 199.03 216"><defs><style>.cls-1{fill:#231f20;}</style></defs><g id="Layer_2" data-name="Layer 2"><g id="Layer_1_copy" data-name="Layer 1 copy"><path class="cls-1" d="M198.52,27l-99-27L.52,27c-1.33,18.49-2.32,66.9,27,117a202.83,202.83,0,0,0,72,72,202.83,202.83,0,0,0,72-72C200.84,93.9,199.85,45.49,198.52,27Zm-63,117a148,148,0,0,1-36,36,148,148,0,0,1-36-36c-25.37-36.24-27.18-74.15-27-90l63-18,63,18C162.7,69.85,160.89,107.76,135.52,144Z"/><path class="cls-1" d="M109.94,104.67,117.52,135h-36l7.58-30.33-.06,0a8.87,8.87,0,0,1-.78-.59c-.24-.19-.48-.39-.71-.6a17.68,17.68,0,0,1-1.38-1.36c-.12-.13-.24-.26-.35-.4l-.37-.45c-.14-.17-.27-.34-.4-.52a15.6,15.6,0,0,1-.92-1.37l-.24-.41c-.22-.37-.42-.76-.61-1.15-.1-.21-.2-.43-.29-.65s-.22-.5-.31-.76-.15-.39-.21-.59a15.8,15.8,0,0,1-.48-1.7c0-.21-.1-.42-.13-.63a1.55,1.55,0,0,1-.06-.31q-.08-.37-.12-.75a2,2,0,0,1,0-.24c0-.26-.06-.51-.08-.77,0-.45,0-.91,0-1.37a18,18,0,0,1,36,0c0,.46,0,.92,0,1.37,0,.26,0,.51-.08.77a2,2,0,0,1,0,.24q0,.38-.12.75a1.55,1.55,0,0,1-.06.31c0,.21-.08.42-.13.63a15.8,15.8,0,0,1-.48,1.7c-.06.2-.13.39-.21.59s-.2.51-.31.76-.19.44-.29.65c-.19.39-.39.78-.61,1.15l-.24.41a15.6,15.6,0,0,1-.92,1.37c-.13.18-.26.35-.4.52l-.37.45c-.11.14-.23.27-.35.4a17.68,17.68,0,0,1-1.38,1.36c-.23.21-.47.41-.71.6a8.87,8.87,0,0,1-.78.59Z"/></g></g></svg>